<?xml version="1.0" encoding="UTF-8" standalone="no"?>
<!DOCTYPE svg PUBLIC "-//W3C//DTD SVG 1.1//EN"
 "http://www.w3.org/Graphics/SVG/1.1/DTD/svg11.dtd">
<!-- Generated by graphviz version 2.26.3 (20100126.1600)
 -->
<!-- Title: controllers_diagram Pages: 1 -->
<svg width="1443pt" height="1195pt"
 viewBox="0.00 0.00 1443.00 1195.00" xmlns="http://www.w3.org/2000/svg" xmlns:xlink="http://www.w3.org/1999/xlink">
<g id="graph1" class="graph" transform="scale(1 1) rotate(0) translate(4 1191)">
<title>controllers_diagram</title>
<polygon fill="white" stroke="white" points="-4,5 -4,-1191 1440,-1191 1440,5 -4,5"/>
<!-- _diagram_info -->
<g id="node1" class="node"><title>_diagram_info</title>
<text text-anchor="start" x="1192" y="-1170.3" font-family="Times Roman,serif" font-size="13.00">Controllers diagram</text>
<text text-anchor="start" x="1192" y="-1153.3" font-family="Times Roman,serif" font-size="13.00">Date: Aug 17 2013 &#45; 11:44</text>
<text text-anchor="start" x="1192" y="-1136.3" font-family="Times Roman,serif" font-size="13.00">Migration version: 20130316104202</text>
<text text-anchor="start" x="1192" y="-1119.3" font-family="Times Roman,serif" font-size="13.00">Generated by RailRoady 1.1.1</text>
<text text-anchor="start" x="1192" y="-1102.3" font-family="Times Roman,serif" font-size="13.00">http://railroady.prestonlee.com</text>
</g>
<!-- ApplicationController -->
<g id="node2" class="node"><title>ApplicationController</title>
<polyline fill="none" stroke="black" points="318.929,-539.683 584.929,-539.683 "/>
<path fill="none" stroke="black" d="M584.929,-539.683C590.929,-539.683 596.929,-545.683 596.929,-551.683"/>
<polyline fill="none" stroke="black" points="596.929,-551.683 596.929,-719.683 "/>
<path fill="none" stroke="black" d="M596.929,-719.683C596.929,-725.683 590.929,-731.683 584.929,-731.683"/>
<polyline fill="none" stroke="black" points="584.929,-731.683 318.929,-731.683 "/>
<path fill="none" stroke="black" d="M318.929,-731.683C312.929,-731.683 306.929,-725.683 306.929,-719.683"/>
<polyline fill="none" stroke="black" points="306.929,-719.683 306.929,-551.683 "/>
<path fill="none" stroke="black" d="M306.929,-551.683C306.929,-545.683 312.929,-539.683 318.929,-539.683"/>
<text text-anchor="middle" x="451.929" y="-715.083" font-family="Times Roman,serif" font-size="14.00">ApplicationController</text>
<polyline fill="none" stroke="black" points="306.929,-705.683 596.929,-705.683 "/>
<text text-anchor="start" x="314.929" y="-689.083" font-family="Times Roman,serif" font-size="14.00">_one_time_conditions_valid_8?</text>
<polyline fill="none" stroke="black" points="306.929,-679.683 596.929,-679.683 "/>
<polyline fill="none" stroke="black" points="306.929,-655.683 596.929,-655.683 "/>
<text text-anchor="start" x="314.929" y="-639.083" font-family="Times Roman,serif" font-size="14.00">_layout</text>
<text text-anchor="start" x="314.929" y="-621.083" font-family="Times Roman,serif" font-size="14.00">require_authen</text>
<text text-anchor="start" x="314.929" y="-603.083" font-family="Times Roman,serif" font-size="14.00">require_authen_personal</text>
<text text-anchor="start" x="314.929" y="-585.083" font-family="Times Roman,serif" font-size="14.00">require_authorization_admin_dados</text>
<text text-anchor="start" x="314.929" y="-567.083" font-family="Times Roman,serif" font-size="14.00">require_authorization_admin_personals</text>
<text text-anchor="start" x="314.929" y="-549.083" font-family="Times Roman,serif" font-size="14.00">require_authorization_admin_superior</text>
</g>
<!-- Administrador::PersonalsController -->
<g id="node3" class="node"><title>Administrador::PersonalsController</title>
<polyline fill="none" stroke="black" points="782.806,-248.837 1015.81,-248.837 "/>
<path fill="none" stroke="black" d="M1015.81,-248.837C1021.81,-248.837 1027.81,-254.837 1027.81,-260.837"/>
<polyline fill="none" stroke="black" points="1027.81,-260.837 1027.81,-518.837 "/>
<path fill="none" stroke="black" d="M1027.81,-518.837C1027.81,-524.837 1021.81,-530.837 1015.81,-530.837"/>
<polyline fill="none" stroke="black" points="1015.81,-530.837 782.806,-530.837 "/>
<path fill="none" stroke="black" d="M782.806,-530.837C776.806,-530.837 770.806,-524.837 770.806,-518.837"/>
<polyline fill="none" stroke="black" points="770.806,-518.837 770.806,-260.837 "/>
<path fill="none" stroke="black" d="M770.806,-260.837C770.806,-254.837 776.806,-248.837 782.806,-248.837"/>
<text text-anchor="middle" x="899.306" y="-514.237" font-family="Times Roman,serif" font-size="14.00">Administrador::PersonalsController</text>
<polyline fill="none" stroke="black" points="770.806,-504.837 1027.81,-504.837 "/>
<text text-anchor="start" x="778.806" y="-488.237" font-family="Times Roman,serif" font-size="14.00">_one_time_conditions_valid_44?</text>
<text text-anchor="start" x="778.806" y="-470.237" font-family="Times Roman,serif" font-size="14.00">_one_time_conditions_valid_46?</text>
<text text-anchor="start" x="778.806" y="-452.237" font-family="Times Roman,serif" font-size="14.00">create</text>
<text text-anchor="start" x="778.806" y="-434.237" font-family="Times Roman,serif" font-size="14.00">desativar</text>
<text text-anchor="start" x="778.806" y="-416.237" font-family="Times Roman,serif" font-size="14.00">destroy</text>
<text text-anchor="start" x="778.806" y="-398.237" font-family="Times Roman,serif" font-size="14.00">edit</text>
<text text-anchor="start" x="778.806" y="-380.237" font-family="Times Roman,serif" font-size="14.00">index</text>
<text text-anchor="start" x="778.806" y="-362.237" font-family="Times Roman,serif" font-size="14.00">new</text>
<text text-anchor="start" x="778.806" y="-344.237" font-family="Times Roman,serif" font-size="14.00">reativar</text>
<text text-anchor="start" x="778.806" y="-326.237" font-family="Times Roman,serif" font-size="14.00">update</text>
<polyline fill="none" stroke="black" points="770.806,-316.837 1027.81,-316.837 "/>
<polyline fill="none" stroke="black" points="770.806,-292.837 1027.81,-292.837 "/>
<text text-anchor="start" x="778.806" y="-276.237" font-family="Times Roman,serif" font-size="14.00">_layout</text>
<text text-anchor="start" x="778.806" y="-258.237" font-family="Times Roman,serif" font-size="14.00">get_autorizacao_apelidos</text>
</g>
<!-- ApplicationController&#45;&gt;Administrador::PersonalsController -->
<g id="edge2" class="edge"><title>ApplicationController&#45;&gt;Administrador::PersonalsController</title>
<path fill="none" stroke="black" d="M597.18,-555.864C653.055,-525.159 716.407,-490.345 770.617,-460.555"/>
</g>
<!-- Administrador::AdminSessionController -->
<g id="node4" class="node"><title>Administrador::AdminSessionController</title>
<polyline fill="none" stroke="black" points="336.721,-46.6654 599.721,-46.6654 "/>
<path fill="none" stroke="black" d="M599.721,-46.6654C605.721,-46.6654 611.721,-52.6654 611.721,-58.6654"/>
<polyline fill="none" stroke="black" points="611.721,-58.6654 611.721,-172.665 "/>
<path fill="none" stroke="black" d="M611.721,-172.665C611.721,-178.665 605.721,-184.665 599.721,-184.665"/>
<polyline fill="none" stroke="black" points="599.721,-184.665 336.721,-184.665 "/>
<path fill="none" stroke="black" d="M336.721,-184.665C330.721,-184.665 324.721,-178.665 324.721,-172.665"/>
<polyline fill="none" stroke="black" points="324.721,-172.665 324.721,-58.6654 "/>
<path fill="none" stroke="black" d="M324.721,-58.6654C324.721,-52.6654 330.721,-46.6654 336.721,-46.6654"/>
<text text-anchor="middle" x="468.221" y="-168.065" font-family="Times Roman,serif" font-size="14.00">Administrador::AdminSessionController</text>
<polyline fill="none" stroke="black" points="324.721,-158.665 611.721,-158.665 "/>
<text text-anchor="start" x="332.721" y="-142.065" font-family="Times Roman,serif" font-size="14.00">create</text>
<text text-anchor="start" x="332.721" y="-124.065" font-family="Times Roman,serif" font-size="14.00">destroy</text>
<text text-anchor="start" x="332.721" y="-106.065" font-family="Times Roman,serif" font-size="14.00">new</text>
<polyline fill="none" stroke="black" points="324.721,-96.6654 611.721,-96.6654 "/>
<polyline fill="none" stroke="black" points="324.721,-72.6654 611.721,-72.6654 "/>
<text text-anchor="start" x="332.721" y="-56.0654" font-family="Times Roman,serif" font-size="14.00">_layout</text>
</g>
<!-- ApplicationController&#45;&gt;Administrador::AdminSessionController -->
<g id="edge4" class="edge"><title>ApplicationController&#45;&gt;Administrador::AdminSessionController</title>
<path fill="none" stroke="black" d="M454.946,-539.394C458.17,-436.489 463.201,-275.901 466.054,-184.831"/>
</g>
<!-- Administrador::MembersController -->
<g id="node5" class="node"><title>Administrador::MembersController</title>
<polyline fill="none" stroke="black" points="383.255,-828.509 613.255,-828.509 "/>
<path fill="none" stroke="black" d="M613.255,-828.509C619.255,-828.509 625.255,-834.509 625.255,-840.509"/>
<polyline fill="none" stroke="black" points="625.255,-840.509 625.255,-1026.51 "/>
<path fill="none" stroke="black" d="M625.255,-1026.51C625.255,-1032.51 619.255,-1038.51 613.255,-1038.51"/>
<polyline fill="none" stroke="black" points="613.255,-1038.51 383.255,-1038.51 "/>
<path fill="none" stroke="black" d="M383.255,-1038.51C377.255,-1038.51 371.255,-1032.51 371.255,-1026.51"/>
<polyline fill="none" stroke="black" points="371.255,-1026.51 371.255,-840.509 "/>
<path fill="none" stroke="black" d="M371.255,-840.509C371.255,-834.509 377.255,-828.509 383.255,-828.509"/>
<text text-anchor="middle" x="498.255" y="-1021.91" font-family="Times Roman,serif" font-size="14.00">Administrador::MembersController</text>
<polyline fill="none" stroke="black" points="371.255,-1012.51 625.255,-1012.51 "/>
<text text-anchor="start" x="379.255" y="-995.909" font-family="Times Roman,serif" font-size="14.00">_one_time_conditions_valid_60?</text>
<text text-anchor="start" x="379.255" y="-977.909" font-family="Times Roman,serif" font-size="14.00">create</text>
<text text-anchor="start" x="379.255" y="-959.909" font-family="Times Roman,serif" font-size="14.00">destroy</text>
<text text-anchor="start" x="379.255" y="-941.909" font-family="Times Roman,serif" font-size="14.00">edit</text>
<text text-anchor="start" x="379.255" y="-923.909" font-family="Times Roman,serif" font-size="14.00">index</text>
<text text-anchor="start" x="379.255" y="-905.909" font-family="Times Roman,serif" font-size="14.00">new</text>
<text text-anchor="start" x="379.255" y="-887.909" font-family="Times Roman,serif" font-size="14.00">update</text>
<polyline fill="none" stroke="black" points="371.255,-878.509 625.255,-878.509 "/>
<polyline fill="none" stroke="black" points="371.255,-854.509 625.255,-854.509 "/>
<text text-anchor="start" x="379.255" y="-837.909" font-family="Times Roman,serif" font-size="14.00">_layout</text>
</g>
<!-- ApplicationController&#45;&gt;Administrador::MembersController -->
<g id="edge6" class="edge"><title>ApplicationController&#45;&gt;Administrador::MembersController</title>
<path fill="none" stroke="black" d="M466.906,-731.967C471.691,-762.728 477.01,-796.928 481.889,-828.29"/>
</g>
<!-- Administrador::ContatoController -->
<g id="node6" class="node"><title>Administrador::ContatoController</title>
<polyline fill="none" stroke="black" points="691.164,-605.133 914.164,-605.133 "/>
<path fill="none" stroke="black" d="M914.164,-605.133C920.164,-605.133 926.164,-611.133 926.164,-617.133"/>
<polyline fill="none" stroke="black" points="926.164,-617.133 926.164,-713.133 "/>
<path fill="none" stroke="black" d="M926.164,-713.133C926.164,-719.133 920.164,-725.133 914.164,-725.133"/>
<polyline fill="none" stroke="black" points="914.164,-725.133 691.164,-725.133 "/>
<path fill="none" stroke="black" d="M691.164,-725.133C685.164,-725.133 679.164,-719.133 679.164,-713.133"/>
<polyline fill="none" stroke="black" points="679.164,-713.133 679.164,-617.133 "/>
<path fill="none" stroke="black" d="M679.164,-617.133C679.164,-611.133 685.164,-605.133 691.164,-605.133"/>
<text text-anchor="middle" x="802.664" y="-708.533" font-family="Times Roman,serif" font-size="14.00">Administrador::ContatoController</text>
<polyline fill="none" stroke="black" points="679.164,-699.133 926.164,-699.133 "/>
<text text-anchor="start" x="687.164" y="-682.533" font-family="Times Roman,serif" font-size="14.00">_one_time_conditions_valid_72?</text>
<text text-anchor="start" x="687.164" y="-664.533" font-family="Times Roman,serif" font-size="14.00">index</text>
<polyline fill="none" stroke="black" points="679.164,-655.133 926.164,-655.133 "/>
<polyline fill="none" stroke="black" points="679.164,-631.133 926.164,-631.133 "/>
<text text-anchor="start" x="687.164" y="-614.533" font-family="Times Roman,serif" font-size="14.00">_layout</text>
</g>
<!-- ApplicationController&#45;&gt;Administrador::ContatoController -->
<g id="edge8" class="edge"><title>ApplicationController&#45;&gt;Administrador::ContatoController</title>
<path fill="none" stroke="black" d="M597.118,-647.874C624.35,-650.161 652.583,-652.531 679.083,-654.756"/>
</g>
<!-- Administrador::FeeController -->
<g id="node7" class="node"><title>Administrador::FeeController</title>
<polyline fill="none" stroke="black" points="43.5223,-863.679 257.522,-863.679 "/>
<path fill="none" stroke="black" d="M257.522,-863.679C263.522,-863.679 269.522,-869.679 269.522,-875.679"/>
<polyline fill="none" stroke="black" points="269.522,-875.679 269.522,-1007.68 "/>
<path fill="none" stroke="black" d="M269.522,-1007.68C269.522,-1013.68 263.522,-1019.68 257.522,-1019.68"/>
<polyline fill="none" stroke="black" points="257.522,-1019.68 43.5223,-1019.68 "/>
<path fill="none" stroke="black" d="M43.5223,-1019.68C37.5223,-1019.68 31.5223,-1013.68 31.5223,-1007.68"/>
<polyline fill="none" stroke="black" points="31.5223,-1007.68 31.5223,-875.679 "/>
<path fill="none" stroke="black" d="M31.5223,-875.679C31.5223,-869.679 37.5223,-863.679 43.5223,-863.679"/>
<text text-anchor="middle" x="150.522" y="-1003.08" font-family="Times Roman,serif" font-size="14.00">Administrador::FeeController</text>
<polyline fill="none" stroke="black" points="31.5223,-993.679 269.522,-993.679 "/>
<text text-anchor="start" x="39.5223" y="-977.079" font-family="Times Roman,serif" font-size="14.00">_one_time_conditions_valid_82?</text>
<text text-anchor="start" x="39.5223" y="-959.079" font-family="Times Roman,serif" font-size="14.00">aprovar</text>
<text text-anchor="start" x="39.5223" y="-941.079" font-family="Times Roman,serif" font-size="14.00">index</text>
<text text-anchor="start" x="39.5223" y="-923.079" font-family="Times Roman,serif" font-size="14.00">reprovar</text>
<polyline fill="none" stroke="black" points="31.5223,-913.679 269.522,-913.679 "/>
<polyline fill="none" stroke="black" points="31.5223,-889.679 269.522,-889.679 "/>
<text text-anchor="start" x="39.5223" y="-873.079" font-family="Times Roman,serif" font-size="14.00">_layout</text>
</g>
<!-- ApplicationController&#45;&gt;Administrador::FeeController -->
<g id="edge10" class="edge"><title>ApplicationController&#45;&gt;Administrador::FeeController</title>
<path fill="none" stroke="black" d="M356.976,-732.082C315.217,-774.476 266.811,-823.619 227.37,-863.661"/>
</g>
<!-- Administrador::AdminsController -->
<g id="node8" class="node"><title>Administrador::AdminsController</title>
<polyline fill="none" stroke="black" points="87.1474,-255.639 310.147,-255.639 "/>
<path fill="none" stroke="black" d="M310.147,-255.639C316.147,-255.639 322.147,-261.639 322.147,-267.639"/>
<polyline fill="none" stroke="black" points="322.147,-267.639 322.147,-507.639 "/>
<path fill="none" stroke="black" d="M322.147,-507.639C322.147,-513.639 316.147,-519.639 310.147,-519.639"/>
<polyline fill="none" stroke="black" points="310.147,-519.639 87.1474,-519.639 "/>
<path fill="none" stroke="black" d="M87.1474,-519.639C81.1474,-519.639 75.1474,-513.639 75.1474,-507.639"/>
<polyline fill="none" stroke="black" points="75.1474,-507.639 75.1474,-267.639 "/>
<path fill="none" stroke="black" d="M75.1474,-267.639C75.1474,-261.639 81.1474,-255.639 87.1474,-255.639"/>
<text text-anchor="middle" x="198.647" y="-503.039" font-family="Times Roman,serif" font-size="14.00">Administrador::AdminsController</text>
<polyline fill="none" stroke="black" points="75.1474,-493.639 322.147,-493.639 "/>
<text text-anchor="start" x="83.1474" y="-477.039" font-family="Times Roman,serif" font-size="14.00">_one_time_conditions_valid_118?</text>
<text text-anchor="start" x="83.1474" y="-459.039" font-family="Times Roman,serif" font-size="14.00">_one_time_conditions_valid_120?</text>
<text text-anchor="start" x="83.1474" y="-441.039" font-family="Times Roman,serif" font-size="14.00">create</text>
<text text-anchor="start" x="83.1474" y="-423.039" font-family="Times Roman,serif" font-size="14.00">destroy</text>
<text text-anchor="start" x="83.1474" y="-405.039" font-family="Times Roman,serif" font-size="14.00">edit</text>
<text text-anchor="start" x="83.1474" y="-387.039" font-family="Times Roman,serif" font-size="14.00">index</text>
<text text-anchor="start" x="83.1474" y="-369.039" font-family="Times Roman,serif" font-size="14.00">login</text>
<text text-anchor="start" x="83.1474" y="-351.039" font-family="Times Roman,serif" font-size="14.00">new</text>
<text text-anchor="start" x="83.1474" y="-333.039" font-family="Times Roman,serif" font-size="14.00">show</text>
<text text-anchor="start" x="83.1474" y="-315.039" font-family="Times Roman,serif" font-size="14.00">update</text>
<polyline fill="none" stroke="black" points="75.1474,-305.639 322.147,-305.639 "/>
<polyline fill="none" stroke="black" points="75.1474,-281.639 322.147,-281.639 "/>
<text text-anchor="start" x="83.1474" y="-265.039" font-family="Times Roman,serif" font-size="14.00">_layout</text>
</g>
<!-- ApplicationController&#45;&gt;Administrador::AdminsController -->
<g id="edge12" class="edge"><title>ApplicationController&#45;&gt;Administrador::AdminsController</title>
<path fill="none" stroke="black" d="M353.641,-539.428C343.351,-529.351 332.798,-519.016 322.273,-508.708"/>
</g>
<!-- Administrador::HomemessageController -->
<g id="node9" class="node"><title>Administrador::HomemessageController</title>
<polyline fill="none" stroke="black" points="1028.77,-59.4133 1294.77,-59.4133 "/>
<path fill="none" stroke="black" d="M1294.77,-59.4133C1300.77,-59.4133 1306.77,-65.4133 1306.77,-71.4133"/>
<polyline fill="none" stroke="black" points="1306.77,-71.4133 1306.77,-221.413 "/>
<path fill="none" stroke="black" d="M1306.77,-221.413C1306.77,-227.413 1300.77,-233.413 1294.77,-233.413"/>
<polyline fill="none" stroke="black" points="1294.77,-233.413 1028.77,-233.413 "/>
<path fill="none" stroke="black" d="M1028.77,-233.413C1022.77,-233.413 1016.77,-227.413 1016.77,-221.413"/>
<polyline fill="none" stroke="black" points="1016.77,-221.413 1016.77,-71.4133 "/>
<path fill="none" stroke="black" d="M1016.77,-71.4133C1016.77,-65.4133 1022.77,-59.4133 1028.77,-59.4133"/>
<text text-anchor="middle" x="1161.77" y="-216.813" font-family="Times Roman,serif" font-size="14.00">Administrador::HomemessageController</text>
<polyline fill="none" stroke="black" points="1016.77,-207.413 1306.77,-207.413 "/>
<text text-anchor="start" x="1024.77" y="-190.813" font-family="Times Roman,serif" font-size="14.00">_one_time_conditions_valid_132?</text>
<text text-anchor="start" x="1024.77" y="-172.813" font-family="Times Roman,serif" font-size="14.00">aprovar</text>
<text text-anchor="start" x="1024.77" y="-154.813" font-family="Times Roman,serif" font-size="14.00">destroy</text>
<text text-anchor="start" x="1024.77" y="-136.813" font-family="Times Roman,serif" font-size="14.00">index</text>
<text text-anchor="start" x="1024.77" y="-118.813" font-family="Times Roman,serif" font-size="14.00">reprovar</text>
<polyline fill="none" stroke="black" points="1016.77,-109.413 1306.77,-109.413 "/>
<polyline fill="none" stroke="black" points="1016.77,-85.4133 1306.77,-85.4133 "/>
<text text-anchor="start" x="1024.77" y="-68.8133" font-family="Times Roman,serif" font-size="14.00">_layout</text>
</g>
<!-- ApplicationController&#45;&gt;Administrador::HomemessageController -->
<g id="edge14" class="edge"><title>ApplicationController&#45;&gt;Administrador::HomemessageController</title>
<path fill="none" stroke="black" d="M597.163,-565.154C628.95,-544.37 660.044,-519.129 683.434,-489.61 754.67,-399.707 683.101,-323.2 767.606,-245.637 834.67,-184.082 934.233,-159.368 1016.51,-149.996"/>
</g>
<!-- Administrador::FamiliesController -->
<g id="node10" class="node"><title>Administrador::FamiliesController</title>
<polyline fill="none" stroke="black" points="13,-1.5 236,-1.5 "/>
<path fill="none" stroke="black" d="M236,-1.5C242,-1.5 248,-7.5 248,-13.5"/>
<polyline fill="none" stroke="black" points="248,-13.5 248,-217.5 "/>
<path fill="none" stroke="black" d="M248,-217.5C248,-223.5 242,-229.5 236,-229.5"/>
<polyline fill="none" stroke="black" points="236,-229.5 13,-229.5 "/>
<path fill="none" stroke="black" d="M13,-229.5C7,-229.5 1,-223.5 1,-217.5"/>
<polyline fill="none" stroke="black" points="1,-217.5 1,-13.5 "/>
<path fill="none" stroke="black" d="M1,-13.5C1,-7.5 7,-1.5 13,-1.5"/>
<text text-anchor="middle" x="124.5" y="-212.9" font-family="Times Roman,serif" font-size="14.00">Administrador::FamiliesController</text>
<polyline fill="none" stroke="black" points="1,-203.5 248,-203.5 "/>
<text text-anchor="start" x="9" y="-186.9" font-family="Times Roman,serif" font-size="14.00">_one_time_conditions_valid_154?</text>
<text text-anchor="start" x="9" y="-168.9" font-family="Times Roman,serif" font-size="14.00">create</text>
<text text-anchor="start" x="9" y="-150.9" font-family="Times Roman,serif" font-size="14.00">destroy</text>
<text text-anchor="start" x="9" y="-132.9" font-family="Times Roman,serif" font-size="14.00">edit</text>
<text text-anchor="start" x="9" y="-114.9" font-family="Times Roman,serif" font-size="14.00">index</text>
<text text-anchor="start" x="9" y="-96.9" font-family="Times Roman,serif" font-size="14.00">new</text>
<text text-anchor="start" x="9" y="-78.9" font-family="Times Roman,serif" font-size="14.00">show</text>
<text text-anchor="start" x="9" y="-60.9" font-family="Times Roman,serif" font-size="14.00">update</text>
<polyline fill="none" stroke="black" points="1,-51.5 248,-51.5 "/>
<polyline fill="none" stroke="black" points="1,-27.5 248,-27.5 "/>
<text text-anchor="start" x="9" y="-10.9" font-family="Times Roman,serif" font-size="14.00">_layout</text>
</g>
<!-- ApplicationController&#45;&gt;Administrador::FamiliesController -->
<g id="edge16" class="edge"><title>ApplicationController&#45;&gt;Administrador::FamiliesController</title>
<path fill="none" stroke="black" d="M437.963,-539.441C422.047,-456.663 389.439,-337.505 325.347,-252.439 304.586,-224.884 276.603,-200.963 248.128,-181.165"/>
</g>
<!-- StaticPagesController -->
<g id="node11" class="node"><title>StaticPagesController</title>
<polyline fill="none" stroke="black" points="732.653,-51.1234 873.653,-51.1234 "/>
<path fill="none" stroke="black" d="M873.653,-51.1234C879.653,-51.1234 885.653,-57.1234 885.653,-63.1234"/>
<polyline fill="none" stroke="black" points="885.653,-63.1234 885.653,-139.123 "/>
<path fill="none" stroke="black" d="M885.653,-139.123C885.653,-145.123 879.653,-151.123 873.653,-151.123"/>
<polyline fill="none" stroke="black" points="873.653,-151.123 732.653,-151.123 "/>
<path fill="none" stroke="black" d="M732.653,-151.123C726.653,-151.123 720.653,-145.123 720.653,-139.123"/>
<polyline fill="none" stroke="black" points="720.653,-139.123 720.653,-63.1234 "/>
<path fill="none" stroke="black" d="M720.653,-63.1234C720.653,-57.1234 726.653,-51.1234 732.653,-51.1234"/>
<text text-anchor="middle" x="803.153" y="-134.523" font-family="Times Roman,serif" font-size="14.00">StaticPagesController</text>
<polyline fill="none" stroke="black" points="720.653,-125.123 885.653,-125.123 "/>
<polyline fill="none" stroke="black" points="720.653,-101.123 885.653,-101.123 "/>
<polyline fill="none" stroke="black" points="720.653,-77.1234 885.653,-77.1234 "/>
<text text-anchor="start" x="728.653" y="-60.5234" font-family="Times Roman,serif" font-size="14.00">_layout</text>
</g>
<!-- ApplicationController&#45;&gt;StaticPagesController -->
<g id="edge18" class="edge"><title>ApplicationController&#45;&gt;StaticPagesController</title>
<path fill="none" stroke="black" d="M596.968,-566.294C629.047,-545.382 660.322,-519.797 683.434,-489.61 704.403,-462.221 763.165,-250.101 789.768,-151.371"/>
</g>
<!-- Site::PresenceController -->
<g id="node12" class="node"><title>Site::PresenceController</title>
<polyline fill="none" stroke="black" points="508.234,-294.41 668.234,-294.41 "/>
<path fill="none" stroke="black" d="M668.234,-294.41C674.234,-294.41 680.234,-300.41 680.234,-306.41"/>
<polyline fill="none" stroke="black" points="680.234,-306.41 680.234,-474.41 "/>
<path fill="none" stroke="black" d="M680.234,-474.41C680.234,-480.41 674.234,-486.41 668.234,-486.41"/>
<polyline fill="none" stroke="black" points="668.234,-486.41 508.234,-486.41 "/>
<path fill="none" stroke="black" d="M508.234,-486.41C502.234,-486.41 496.234,-480.41 496.234,-474.41"/>
<polyline fill="none" stroke="black" points="496.234,-474.41 496.234,-306.41 "/>
<path fill="none" stroke="black" d="M496.234,-306.41C496.234,-300.41 502.234,-294.41 508.234,-294.41"/>
<text text-anchor="middle" x="588.234" y="-469.81" font-family="Times Roman,serif" font-size="14.00">Site::PresenceController</text>
<polyline fill="none" stroke="black" points="496.234,-460.41 680.234,-460.41 "/>
<text text-anchor="start" x="504.234" y="-443.81" font-family="Times Roman,serif" font-size="14.00">add_follower</text>
<text text-anchor="start" x="504.234" y="-425.81" font-family="Times Roman,serif" font-size="14.00">cancel</text>
<text text-anchor="start" x="504.234" y="-407.81" font-family="Times Roman,serif" font-size="14.00">confirm</text>
<text text-anchor="start" x="504.234" y="-389.81" font-family="Times Roman,serif" font-size="14.00">family</text>
<text text-anchor="start" x="504.234" y="-371.81" font-family="Times Roman,serif" font-size="14.00">index</text>
<text text-anchor="start" x="504.234" y="-353.81" font-family="Times Roman,serif" font-size="14.00">members</text>
<polyline fill="none" stroke="black" points="496.234,-344.41 680.234,-344.41 "/>
<polyline fill="none" stroke="black" points="496.234,-320.41 680.234,-320.41 "/>
<text text-anchor="start" x="504.234" y="-303.81" font-family="Times Roman,serif" font-size="14.00">_layout</text>
</g>
<!-- ApplicationController&#45;&gt;Site::PresenceController -->
<g id="edge20" class="edge"><title>ApplicationController&#45;&gt;Site::PresenceController</title>
<path fill="none" stroke="black" d="M505.409,-539.448C515.03,-522.136 525.061,-504.086 534.684,-486.769"/>
</g>
<!-- Site::PageController -->
<g id="node13" class="node"><title>Site::PageController</title>
<polyline fill="none" stroke="black" points="44.1774,-537.019 175.177,-537.019 "/>
<path fill="none" stroke="black" d="M175.177,-537.019C181.177,-537.019 187.177,-543.019 187.177,-549.019"/>
<polyline fill="none" stroke="black" points="187.177,-549.019 187.177,-735.019 "/>
<path fill="none" stroke="black" d="M187.177,-735.019C187.177,-741.019 181.177,-747.019 175.177,-747.019"/>
<polyline fill="none" stroke="black" points="175.177,-747.019 44.1774,-747.019 "/>
<path fill="none" stroke="black" d="M44.1774,-747.019C38.1774,-747.019 32.1774,-741.019 32.1774,-735.019"/>
<polyline fill="none" stroke="black" points="32.1774,-735.019 32.1774,-549.019 "/>
<path fill="none" stroke="black" d="M32.1774,-549.019C32.1774,-543.019 38.1774,-537.019 44.1774,-537.019"/>
<text text-anchor="middle" x="109.677" y="-730.419" font-family="Times Roman,serif" font-size="14.00">Site::PageController</text>
<polyline fill="none" stroke="black" points="32.1774,-721.019 187.177,-721.019 "/>
<text text-anchor="start" x="40.1774" y="-704.419" font-family="Times Roman,serif" font-size="14.00">album</text>
<text text-anchor="start" x="40.1774" y="-686.419" font-family="Times Roman,serif" font-size="14.00">cotas</text>
<text text-anchor="start" x="40.1774" y="-668.419" font-family="Times Roman,serif" font-size="14.00">index</text>
<text text-anchor="start" x="40.1774" y="-650.419" font-family="Times Roman,serif" font-size="14.00">local</text>
<text text-anchor="start" x="40.1774" y="-632.419" font-family="Times Roman,serif" font-size="14.00">messages</text>
<text text-anchor="start" x="40.1774" y="-614.419" font-family="Times Roman,serif" font-size="14.00">submit</text>
<text text-anchor="start" x="40.1774" y="-596.419" font-family="Times Roman,serif" font-size="14.00">submit_fee</text>
<polyline fill="none" stroke="black" points="32.1774,-587.019 187.177,-587.019 "/>
<polyline fill="none" stroke="black" points="32.1774,-563.019 187.177,-563.019 "/>
<text text-anchor="start" x="40.1774" y="-546.419" font-family="Times Roman,serif" font-size="14.00">_layout</text>
</g>
<!-- ApplicationController&#45;&gt;Site::PageController -->
<g id="edge22" class="edge"><title>ApplicationController&#45;&gt;Site::PageController</title>
<path fill="none" stroke="black" d="M306.784,-638.37C265.791,-639.129 222.762,-639.926 187.403,-640.58"/>
</g>
<!-- Site::DicasController -->
<g id="node14" class="node"><title>Site::DicasController</title>
<polyline fill="none" stroke="black" points="1106.87,-475.229 1240.87,-475.229 "/>
<path fill="none" stroke="black" d="M1240.87,-475.229C1246.87,-475.229 1252.87,-481.229 1252.87,-487.229"/>
<polyline fill="none" stroke="black" points="1252.87,-487.229 1252.87,-601.229 "/>
<path fill="none" stroke="black" d="M1252.87,-601.229C1252.87,-607.229 1246.87,-613.229 1240.87,-613.229"/>
<polyline fill="none" stroke="black" points="1240.87,-613.229 1106.87,-613.229 "/>
<path fill="none" stroke="black" d="M1106.87,-613.229C1100.87,-613.229 1094.87,-607.229 1094.87,-601.229"/>
<polyline fill="none" stroke="black" points="1094.87,-601.229 1094.87,-487.229 "/>
<path fill="none" stroke="black" d="M1094.87,-487.229C1094.87,-481.229 1100.87,-475.229 1106.87,-475.229"/>
<text text-anchor="middle" x="1173.87" y="-596.629" font-family="Times Roman,serif" font-size="14.00">Site::DicasController</text>
<polyline fill="none" stroke="black" points="1094.87,-587.229 1252.87,-587.229 "/>
<text text-anchor="start" x="1102.87" y="-570.629" font-family="Times Roman,serif" font-size="14.00">madrinhas</text>
<text text-anchor="start" x="1102.87" y="-552.629" font-family="Times Roman,serif" font-size="14.00">padrinhos</text>
<text text-anchor="start" x="1102.87" y="-534.629" font-family="Times Roman,serif" font-size="14.00">solteiras</text>
<polyline fill="none" stroke="black" points="1094.87,-525.229 1252.87,-525.229 "/>
<polyline fill="none" stroke="black" points="1094.87,-501.229 1252.87,-501.229 "/>
<text text-anchor="start" x="1102.87" y="-484.629" font-family="Times Roman,serif" font-size="14.00">_layout</text>
</g>
<!-- ApplicationController&#45;&gt;Site::DicasController -->
<g id="edge24" class="edge"><title>ApplicationController&#45;&gt;Site::DicasController</title>
<path fill="none" stroke="black" d="M597.046,-613.083C623.29,-609.206 650.426,-605.336 675.964,-601.933 823.681,-582.253 996.575,-563.081 1094.86,-552.544"/>
</g>
<!-- Site::ContatoController -->
<g id="node15" class="node"><title>Site::ContatoController</title>
<polyline fill="none" stroke="black" points="1078.27,-848.073 1231.27,-848.073 "/>
<path fill="none" stroke="black" d="M1231.27,-848.073C1237.27,-848.073 1243.27,-854.073 1243.27,-860.073"/>
<polyline fill="none" stroke="black" points="1243.27,-860.073 1243.27,-956.073 "/>
<path fill="none" stroke="black" d="M1243.27,-956.073C1243.27,-962.073 1237.27,-968.073 1231.27,-968.073"/>
<polyline fill="none" stroke="black" points="1231.27,-968.073 1078.27,-968.073 "/>
<path fill="none" stroke="black" d="M1078.27,-968.073C1072.27,-968.073 1066.27,-962.073 1066.27,-956.073"/>
<polyline fill="none" stroke="black" points="1066.27,-956.073 1066.27,-860.073 "/>
<path fill="none" stroke="black" d="M1066.27,-860.073C1066.27,-854.073 1072.27,-848.073 1078.27,-848.073"/>
<text text-anchor="middle" x="1154.77" y="-951.473" font-family="Times Roman,serif" font-size="14.00">Site::ContatoController</text>
<polyline fill="none" stroke="black" points="1066.27,-942.073 1243.27,-942.073 "/>
<text text-anchor="start" x="1074.27" y="-925.473" font-family="Times Roman,serif" font-size="14.00">index</text>
<text text-anchor="start" x="1074.27" y="-907.473" font-family="Times Roman,serif" font-size="14.00">submit</text>
<polyline fill="none" stroke="black" points="1066.27,-898.073 1243.27,-898.073 "/>
<polyline fill="none" stroke="black" points="1066.27,-874.073 1243.27,-874.073 "/>
<text text-anchor="start" x="1074.27" y="-857.473" font-family="Times Roman,serif" font-size="14.00">_layout</text>
</g>
<!-- ApplicationController&#45;&gt;Site::ContatoController -->
<g id="edge26" class="edge"><title>ApplicationController&#45;&gt;Site::ContatoController</title>
<path fill="none" stroke="black" d="M597.166,-696.563C623.336,-707.3 650.415,-718.258 675.964,-728.333 811.427,-781.753 969.829,-840.494 1066.19,-875.814"/>
</g>
<!-- Site::NoivosController -->
<g id="node16" class="node"><title>Site::NoivosController</title>
<polyline fill="none" stroke="black" points="746.084,-882.748 889.084,-882.748 "/>
<path fill="none" stroke="black" d="M889.084,-882.748C895.084,-882.748 901.084,-888.748 901.084,-894.748"/>
<polyline fill="none" stroke="black" points="901.084,-894.748 901.084,-1008.75 "/>
<path fill="none" stroke="black" d="M901.084,-1008.75C901.084,-1014.75 895.084,-1020.75 889.084,-1020.75"/>
<polyline fill="none" stroke="black" points="889.084,-1020.75 746.084,-1020.75 "/>
<path fill="none" stroke="black" d="M746.084,-1020.75C740.084,-1020.75 734.084,-1014.75 734.084,-1008.75"/>
<polyline fill="none" stroke="black" points="734.084,-1008.75 734.084,-894.748 "/>
<path fill="none" stroke="black" d="M734.084,-894.748C734.084,-888.748 740.084,-882.748 746.084,-882.748"/>
<text text-anchor="middle" x="817.584" y="-1004.15" font-family="Times Roman,serif" font-size="14.00">Site::NoivosController</text>
<polyline fill="none" stroke="black" points="734.084,-994.748 901.084,-994.748 "/>
<text text-anchor="start" x="742.084" y="-978.148" font-family="Times Roman,serif" font-size="14.00">noiva</text>
<text text-anchor="start" x="742.084" y="-960.148" font-family="Times Roman,serif" font-size="14.00">noivo</text>
<text text-anchor="start" x="742.084" y="-942.148" font-family="Times Roman,serif" font-size="14.00">sobre_os_noivos</text>
<polyline fill="none" stroke="black" points="734.084,-932.748 901.084,-932.748 "/>
<polyline fill="none" stroke="black" points="734.084,-908.748 901.084,-908.748 "/>
<text text-anchor="start" x="742.084" y="-892.148" font-family="Times Roman,serif" font-size="14.00">_layout</text>
</g>
<!-- ApplicationController&#45;&gt;Site::NoivosController -->
<g id="edge28" class="edge"><title>ApplicationController&#45;&gt;Site::NoivosController</title>
<path fill="none" stroke="black" d="M563.127,-731.8C619.437,-780.474 686.516,-838.455 737.661,-882.664"/>
</g>
</g>
</svg>
