<?xml version="1.0" encoding="UTF-8" standalone="no"?>
<!DOCTYPE svg PUBLIC "-//W3C//DTD SVG 1.1//EN"
 "http://www.w3.org/Graphics/SVG/1.1/DTD/svg11.dtd">
<!-- Generated by graphviz version 2.26.3 (20100126.1600)
 -->
<!-- Title: models_diagram Pages: 1 -->
<svg width="948pt" height="250pt"
 viewBox="0.00 0.00 948.00 250.00" xmlns="http://www.w3.org/2000/svg" xmlns:xlink="http://www.w3.org/1999/xlink">
<g id="graph1" class="graph" transform="scale(1 1) rotate(0) translate(4 246)">
<title>models_diagram</title>
<polygon fill="white" stroke="white" points="-4,5 -4,-246 945,-246 945,5 -4,5"/>
<!-- _diagram_info -->
<g id="node1" class="node"><title>_diagram_info</title>
<text text-anchor="start" x="88" y="-225.8" font-family="Times Roman,serif" font-size="13.00">Models diagram</text>
<text text-anchor="start" x="88" y="-208.8" font-family="Times Roman,serif" font-size="13.00">Date: Aug 17 2013 &#45; 11:44</text>
<text text-anchor="start" x="88" y="-191.8" font-family="Times Roman,serif" font-size="13.00">Migration version: 20130316104202</text>
<text text-anchor="start" x="88" y="-174.8" font-family="Times Roman,serif" font-size="13.00">Generated by RailRoady 1.1.1</text>
<text text-anchor="start" x="88" y="-157.8" font-family="Times Roman,serif" font-size="13.00">http://railroady.prestonlee.com</text>
</g>
<!-- Homemessage -->
<g id="node2" class="node"><title>Homemessage</title>
<ellipse fill="none" stroke="black" cx="82" cy="-93" rx="82.0244" ry="18.3848"/>
<text text-anchor="middle" x="82" y="-89.4" font-family="Times Roman,serif" font-size="14.00">Homemessage</text>
</g>
<!-- Personal -->
<g id="node3" class="node"><title>Personal</title>
<ellipse fill="none" stroke="black" cx="227" cy="-19" rx="53.033" ry="18.3848"/>
<text text-anchor="middle" x="227" y="-15.4" font-family="Times Roman,serif" font-size="14.00">Personal</text>
</g>
<!-- Admin -->
<g id="node4" class="node"><title>Admin</title>
<ellipse fill="none" stroke="black" cx="262" cy="-93" rx="41.9273" ry="18.3848"/>
<text text-anchor="middle" x="262" y="-89.4" font-family="Times Roman,serif" font-size="14.00">Admin</text>
</g>
<!-- Admin&#45;&gt;Personal -->
<g id="edge6" class="edge"><title>Admin&#45;&gt;Personal</title>
<path fill="none" stroke="#5262a7" d="M249.905,-67.427C246.759,-60.7756 243.354,-53.5779 240.157,-46.8169"/>
<ellipse fill="none" stroke="#5262a7" cx="251.638" cy="-71.0919" rx="4.00002" ry="4.00002"/>
<polygon fill="#5262a7" stroke="#5262a7" points="239.949,-46.378 239.741,-35.4141 237.811,-41.8581 235.673,-37.3382 235.673,-37.3382 235.673,-37.3382 237.811,-41.8581 231.606,-39.2622 239.949,-46.378 239.949,-46.378"/>
</g>
<!-- Contato -->
<g id="node5" class="node"><title>Contato</title>
<ellipse fill="none" stroke="black" cx="373" cy="-93" rx="50.9117" ry="18.3848"/>
<text text-anchor="middle" x="373" y="-89.4" font-family="Times Roman,serif" font-size="14.00">Contato</text>
</g>
<!-- Administrador -->
<g id="node6" class="node"><title>Administrador</title>
<polygon fill="none" stroke="black" stroke-dasharray="1,5" points="686,-213 574,-213 574,-177 686,-177 686,-213"/>
<text text-anchor="middle" x="630" y="-191.4" font-family="Times Roman,serif" font-size="14.00">Administrador</text>
</g>
<!-- Member -->
<g id="node7" class="node"><title>Member</title>
<ellipse fill="none" stroke="black" cx="587" cy="-19" rx="50.9117" ry="18.3848"/>
<text text-anchor="middle" x="587" y="-15.4" font-family="Times Roman,serif" font-size="14.00">Member</text>
</g>
<!-- Follower -->
<g id="node8" class="node"><title>Follower</title>
<ellipse fill="none" stroke="black" cx="533" cy="-93" rx="53.033" ry="18.3848"/>
<text text-anchor="middle" x="533" y="-89.4" font-family="Times Roman,serif" font-size="14.00">Follower</text>
</g>
<!-- Fee -->
<g id="node9" class="node"><title>Fee</title>
<ellipse fill="none" stroke="black" cx="633" cy="-93" rx="28.9914" ry="18.3848"/>
<text text-anchor="middle" x="633" y="-89.4" font-family="Times Roman,serif" font-size="14.00">Fee</text>
</g>
<!-- Family -->
<g id="node10" class="node"><title>Family</title>
<ellipse fill="none" stroke="black" cx="722" cy="-93" rx="41.9273" ry="18.3848"/>
<text text-anchor="middle" x="722" y="-89.4" font-family="Times Roman,serif" font-size="14.00">Family</text>
</g>
<!-- Family&#45;&gt;Member -->
<g id="edge18" class="edge"><title>Family&#45;&gt;Member</title>
<path fill="none" stroke="#b6de34" d="M688.629,-74.7079C669.187,-64.0508 644.619,-50.5838 624.509,-39.5604"/>
<ellipse fill="none" stroke="#b6de34" cx="692.143" cy="-76.6337" rx="4.00002" ry="4.00002"/>
<polygon fill="#b6de34" stroke="#b6de34" points="624.386,-39.4932 617.78,-30.7404 620.002,-37.0898 615.617,-34.6864 615.617,-34.6864 615.617,-34.6864 620.002,-37.0898 613.454,-38.6325 624.386,-39.4932 624.386,-39.4932"/>
</g>
<!-- AdminSession -->
<g id="node11" class="node"><title>AdminSession</title>
<ellipse fill="none" stroke="black" cx="861" cy="-93" rx="79.196" ry="18.3848"/>
<text text-anchor="middle" x="861" y="-89.4" font-family="Times Roman,serif" font-size="14.00">AdminSession</text>
</g>
<!-- ActiveRecord::Base -->
<g id="node12" class="node"><title>ActiveRecord::Base</title>
<ellipse fill="none" stroke="black" cx="452" cy="-195" rx="104.151" ry="18.3848"/>
<text text-anchor="middle" x="452" y="-191.4" font-family="Times Roman,serif" font-size="14.00">ActiveRecord::Base</text>
</g>
<!-- ActiveRecord::Base&#45;&gt;Homemessage -->
<g id="edge2" class="edge"><title>ActiveRecord::Base&#45;&gt;Homemessage</title>
<path fill="none" stroke="black" d="M415.226,-177.69C393.432,-167.944 365.063,-156.134 339,-148 320.461,-142.215 212.915,-119.799 142.948,-105.431"/>
</g>
<!-- ActiveRecord::Base&#45;&gt;Personal -->
<g id="edge4" class="edge"><title>ActiveRecord::Base&#45;&gt;Personal</title>
<path fill="none" stroke="black" d="M413.741,-177.742C392.06,-168.303 364.291,-156.781 339,-148 283.173,-128.618 246.685,-159.106 211,-112 194.578,-90.3221 206.181,-57.6539 216.369,-37.3634"/>
</g>
<!-- ActiveRecord::Base&#45;&gt;Admin -->
<g id="edge8" class="edge"><title>ActiveRecord::Base&#45;&gt;Admin</title>
<path fill="none" stroke="black" d="M418.905,-177.233C382.011,-157.427 323.056,-125.777 288.888,-107.435"/>
</g>
<!-- ActiveRecord::Base&#45;&gt;Contato -->
<g id="edge10" class="edge"><title>ActiveRecord::Base&#45;&gt;Contato</title>
<path fill="none" stroke="black" d="M437.51,-176.292C423.078,-157.657 401.078,-129.253 386.868,-110.906"/>
</g>
<!-- ActiveRecord::Base&#45;&gt;Member -->
<g id="edge12" class="edge"><title>ActiveRecord::Base&#45;&gt;Member</title>
<path fill="none" stroke="black" d="M449.873,-176.156C448.009,-150.449 448.465,-104.146 471,-74 488.481,-50.6143 518.447,-36.7603 543.542,-28.8066"/>
</g>
<!-- ActiveRecord::Base&#45;&gt;Follower -->
<g id="edge14" class="edge"><title>ActiveRecord::Base&#45;&gt;Follower</title>
<path fill="none" stroke="black" d="M466.857,-176.292C481.654,-157.657 504.211,-129.253 518.781,-110.906"/>
</g>
<!-- ActiveRecord::Base&#45;&gt;Fee -->
<g id="edge16" class="edge"><title>ActiveRecord::Base&#45;&gt;Fee</title>
<path fill="none" stroke="black" d="M483.528,-177.233C520.092,-156.628 579.403,-123.204 611.207,-105.281"/>
</g>
<!-- ActiveRecord::Base&#45;&gt;Family -->
<g id="edge20" class="edge"><title>ActiveRecord::Base&#45;&gt;Family</title>
<path fill="none" stroke="black" d="M491.486,-177.817C513.067,-168.618 540.349,-157.301 565,-148 611.551,-130.437 624.128,-128.687 671,-112 677.142,-109.813 683.678,-107.425 689.95,-105.103"/>
</g>
<!-- ActiveRecord::Base&#45;&gt;AdminSession -->
<g id="edge22" class="edge"><title>ActiveRecord::Base&#45;&gt;AdminSession</title>
<path fill="none" stroke="black" d="M488.152,-177.537C509.971,-167.614 538.577,-155.677 565,-148 655.093,-121.823 680.905,-129.904 773,-112 782.819,-110.091 793.229,-107.949 803.32,-105.81"/>
</g>
</g>
</svg>
