<?xml version="1.0" encoding="UTF-8" standalone="no"?>
<!DOCTYPE svg PUBLIC "-//W3C//DTD SVG 1.1//EN"
 "http://www.w3.org/Graphics/SVG/1.1/DTD/svg11.dtd">
<!-- Generated by graphviz version 2.26.3 (20100126.1600)
 -->
<!-- Title: models_diagram Pages: 1 -->
<svg width="1388pt" height="516pt"
 viewBox="0.00 0.00 1388.00 516.00" xmlns="http://www.w3.org/2000/svg" xmlns:xlink="http://www.w3.org/1999/xlink">
<g id="graph1" class="graph" transform="scale(1 1) rotate(0) translate(4 512)">
<title>models_diagram</title>
<polygon fill="white" stroke="white" points="-4,5 -4,-512 1385,-512 1385,5 -4,5"/>
<!-- _diagram_info -->
<g id="node1" class="node"><title>_diagram_info</title>
<text text-anchor="start" x="244" y="-491.8" font-family="Times Roman,serif" font-size="13.00">Models diagram</text>
<text text-anchor="start" x="244" y="-474.8" font-family="Times Roman,serif" font-size="13.00">Date: Aug 17 2013 &#45; 11:43</text>
<text text-anchor="start" x="244" y="-457.8" font-family="Times Roman,serif" font-size="13.00">Migration version: 20130316104202</text>
<text text-anchor="start" x="244" y="-440.8" font-family="Times Roman,serif" font-size="13.00">Generated by RailRoady 1.1.1</text>
<text text-anchor="start" x="244" y="-423.8" font-family="Times Roman,serif" font-size="13.00">http://railroady.prestonlee.com</text>
</g>
<!-- Homemessage -->
<g id="node2" class="node"><title>Homemessage</title>
<polyline fill="none" stroke="black" points="11.5,-208 152.5,-208 "/>
<path fill="none" stroke="black" d="M152.5,-208C158.5,-208 164.5,-214 164.5,-220"/>
<polyline fill="none" stroke="black" points="164.5,-220 164.5,-338 "/>
<path fill="none" stroke="black" d="M164.5,-338C164.5,-344 158.5,-350 152.5,-350"/>
<polyline fill="none" stroke="black" points="152.5,-350 11.5,-350 "/>
<path fill="none" stroke="black" d="M11.5,-350C5.5,-350 -0.5,-344 -0.5,-338"/>
<polyline fill="none" stroke="black" points="-0.5,-338 -0.5,-220 "/>
<path fill="none" stroke="black" d="M-0.5,-220C-0.5,-214 5.5,-208 11.5,-208"/>
<text text-anchor="middle" x="82" y="-333.4" font-family="Times Roman,serif" font-size="14.00">Homemessage</text>
<polyline fill="none" stroke="black" points="-0.5,-324 164.5,-324 "/>
<text text-anchor="start" x="7.5" y="-307.4" font-family="Times Roman,serif" font-size="14.00">id :integer</text>
<text text-anchor="start" x="7.5" y="-289.4" font-family="Times Roman,serif" font-size="14.00">name :string</text>
<text text-anchor="start" x="7.5" y="-271.4" font-family="Times Roman,serif" font-size="14.00">message :string</text>
<text text-anchor="start" x="7.5" y="-253.4" font-family="Times Roman,serif" font-size="14.00">approved :boolean</text>
<text text-anchor="start" x="7.5" y="-235.4" font-family="Times Roman,serif" font-size="14.00">created_at :datetime</text>
<text text-anchor="start" x="7.5" y="-217.4" font-family="Times Roman,serif" font-size="14.00">updated_at :datetime</text>
</g>
<!-- Personal -->
<g id="node3" class="node"><title>Personal</title>
<polyline fill="none" stroke="black" points="179.5,-10 320.5,-10 "/>
<path fill="none" stroke="black" d="M320.5,-10C326.5,-10 332.5,-16 332.5,-22"/>
<polyline fill="none" stroke="black" points="332.5,-22 332.5,-122 "/>
<path fill="none" stroke="black" d="M332.5,-122C332.5,-128 326.5,-134 320.5,-134"/>
<polyline fill="none" stroke="black" points="320.5,-134 179.5,-134 "/>
<path fill="none" stroke="black" d="M179.5,-134C173.5,-134 167.5,-128 167.5,-122"/>
<polyline fill="none" stroke="black" points="167.5,-122 167.5,-22 "/>
<path fill="none" stroke="black" d="M167.5,-22C167.5,-16 173.5,-10 179.5,-10"/>
<text text-anchor="middle" x="250" y="-117.4" font-family="Times Roman,serif" font-size="14.00">Personal</text>
<polyline fill="none" stroke="black" points="167.5,-108 332.5,-108 "/>
<text text-anchor="start" x="175.5" y="-91.4" font-family="Times Roman,serif" font-size="14.00">id :integer</text>
<text text-anchor="start" x="175.5" y="-73.4" font-family="Times Roman,serif" font-size="14.00">name :string</text>
<text text-anchor="start" x="175.5" y="-55.4" font-family="Times Roman,serif" font-size="14.00">email :string</text>
<text text-anchor="start" x="175.5" y="-37.4" font-family="Times Roman,serif" font-size="14.00">created_at :datetime</text>
<text text-anchor="start" x="175.5" y="-19.4" font-family="Times Roman,serif" font-size="14.00">updated_at :datetime</text>
</g>
<!-- Admin -->
<g id="node4" class="node"><title>Admin</title>
<polyline fill="none" stroke="black" points="231.5,-199 386.5,-199 "/>
<path fill="none" stroke="black" d="M386.5,-199C392.5,-199 398.5,-205 398.5,-211"/>
<polyline fill="none" stroke="black" points="398.5,-211 398.5,-347 "/>
<path fill="none" stroke="black" d="M398.5,-347C398.5,-353 392.5,-359 386.5,-359"/>
<polyline fill="none" stroke="black" points="386.5,-359 231.5,-359 "/>
<path fill="none" stroke="black" d="M231.5,-359C225.5,-359 219.5,-353 219.5,-347"/>
<polyline fill="none" stroke="black" points="219.5,-347 219.5,-211 "/>
<path fill="none" stroke="black" d="M219.5,-211C219.5,-205 225.5,-199 231.5,-199"/>
<text text-anchor="middle" x="309" y="-342.4" font-family="Times Roman,serif" font-size="14.00">Admin</text>
<polyline fill="none" stroke="black" points="219.5,-333 398.5,-333 "/>
<text text-anchor="start" x="227.5" y="-316.4" font-family="Times Roman,serif" font-size="14.00">id :integer</text>
<text text-anchor="start" x="227.5" y="-298.4" font-family="Times Roman,serif" font-size="14.00">name :string</text>
<text text-anchor="start" x="227.5" y="-280.4" font-family="Times Roman,serif" font-size="14.00">email :string</text>
<text text-anchor="start" x="227.5" y="-262.4" font-family="Times Roman,serif" font-size="14.00">password_digest :string</text>
<text text-anchor="start" x="227.5" y="-244.4" font-family="Times Roman,serif" font-size="14.00">admin_level :string</text>
<text text-anchor="start" x="227.5" y="-226.4" font-family="Times Roman,serif" font-size="14.00">created_at :datetime</text>
<text text-anchor="start" x="227.5" y="-208.4" font-family="Times Roman,serif" font-size="14.00">updated_at :datetime</text>
</g>
<!-- Admin&#45;&gt;Personal -->
<g id="edge6" class="edge"><title>Admin&#45;&gt;Personal</title>
<path fill="none" stroke="#eae4ba" d="M283.947,-191.101C279.469,-175.392 274.852,-159.191 270.52,-143.993"/>
<ellipse fill="none" stroke="#eae4ba" cx="285.093" cy="-195.122" rx="4.00001" ry="4.00001"/>
<polygon fill="#eae4ba" stroke="#eae4ba" points="270.46,-143.782 272.046,-132.931 269.089,-138.973 267.719,-134.165 267.719,-134.165 267.719,-134.165 269.089,-138.973 263.391,-135.398 270.46,-143.782 270.46,-143.782"/>
</g>
<!-- Contato -->
<g id="node5" class="node"><title>Contato</title>
<polyline fill="none" stroke="black" points="427.5,-208 568.5,-208 "/>
<path fill="none" stroke="black" d="M568.5,-208C574.5,-208 580.5,-214 580.5,-220"/>
<polyline fill="none" stroke="black" points="580.5,-220 580.5,-338 "/>
<path fill="none" stroke="black" d="M580.5,-338C580.5,-344 574.5,-350 568.5,-350"/>
<polyline fill="none" stroke="black" points="568.5,-350 427.5,-350 "/>
<path fill="none" stroke="black" d="M427.5,-350C421.5,-350 415.5,-344 415.5,-338"/>
<polyline fill="none" stroke="black" points="415.5,-338 415.5,-220 "/>
<path fill="none" stroke="black" d="M415.5,-220C415.5,-214 421.5,-208 427.5,-208"/>
<text text-anchor="middle" x="498" y="-333.4" font-family="Times Roman,serif" font-size="14.00">Contato</text>
<polyline fill="none" stroke="black" points="415.5,-324 580.5,-324 "/>
<text text-anchor="start" x="423.5" y="-307.4" font-family="Times Roman,serif" font-size="14.00">id :integer</text>
<text text-anchor="start" x="423.5" y="-289.4" font-family="Times Roman,serif" font-size="14.00">name :string</text>
<text text-anchor="start" x="423.5" y="-271.4" font-family="Times Roman,serif" font-size="14.00">email :string</text>
<text text-anchor="start" x="423.5" y="-253.4" font-family="Times Roman,serif" font-size="14.00">text :string</text>
<text text-anchor="start" x="423.5" y="-235.4" font-family="Times Roman,serif" font-size="14.00">created_at :datetime</text>
<text text-anchor="start" x="423.5" y="-217.4" font-family="Times Roman,serif" font-size="14.00">updated_at :datetime</text>
</g>
<!-- Administrador -->
<g id="node6" class="node"><title>Administrador</title>
<polygon fill="none" stroke="black" stroke-dasharray="1,5" points="842,-479 730,-479 730,-443 842,-443 842,-479"/>
<text text-anchor="middle" x="786" y="-457.4" font-family="Times Roman,serif" font-size="14.00">Administrador</text>
</g>
<!-- Member -->
<g id="node7" class="node"><title>Member</title>
<polyline fill="none" stroke="black" points="786.5,-1 927.5,-1 "/>
<path fill="none" stroke="black" d="M927.5,-1C933.5,-1 939.5,-7 939.5,-13"/>
<polyline fill="none" stroke="black" points="939.5,-13 939.5,-131 "/>
<path fill="none" stroke="black" d="M939.5,-131C939.5,-137 933.5,-143 927.5,-143"/>
<polyline fill="none" stroke="black" points="927.5,-143 786.5,-143 "/>
<path fill="none" stroke="black" d="M786.5,-143C780.5,-143 774.5,-137 774.5,-131"/>
<polyline fill="none" stroke="black" points="774.5,-131 774.5,-13 "/>
<path fill="none" stroke="black" d="M774.5,-13C774.5,-7 780.5,-1 786.5,-1"/>
<text text-anchor="middle" x="857" y="-126.4" font-family="Times Roman,serif" font-size="14.00">Member</text>
<polyline fill="none" stroke="black" points="774.5,-117 939.5,-117 "/>
<text text-anchor="start" x="782.5" y="-100.4" font-family="Times Roman,serif" font-size="14.00">id :integer</text>
<text text-anchor="start" x="782.5" y="-82.4" font-family="Times Roman,serif" font-size="14.00">name :string</text>
<text text-anchor="start" x="782.5" y="-64.4" font-family="Times Roman,serif" font-size="14.00">family_id :integer</text>
<text text-anchor="start" x="782.5" y="-46.4" font-family="Times Roman,serif" font-size="14.00">confirmado :boolean</text>
<text text-anchor="start" x="782.5" y="-28.4" font-family="Times Roman,serif" font-size="14.00">created_at :datetime</text>
<text text-anchor="start" x="782.5" y="-10.4" font-family="Times Roman,serif" font-size="14.00">updated_at :datetime</text>
</g>
<!-- Follower -->
<g id="node8" class="node"><title>Follower</title>
<polyline fill="none" stroke="black" points="647.5,-208 788.5,-208 "/>
<path fill="none" stroke="black" d="M788.5,-208C794.5,-208 800.5,-214 800.5,-220"/>
<polyline fill="none" stroke="black" points="800.5,-220 800.5,-338 "/>
<path fill="none" stroke="black" d="M800.5,-338C800.5,-344 794.5,-350 788.5,-350"/>
<polyline fill="none" stroke="black" points="788.5,-350 647.5,-350 "/>
<path fill="none" stroke="black" d="M647.5,-350C641.5,-350 635.5,-344 635.5,-338"/>
<polyline fill="none" stroke="black" points="635.5,-338 635.5,-220 "/>
<path fill="none" stroke="black" d="M635.5,-220C635.5,-214 641.5,-208 647.5,-208"/>
<text text-anchor="middle" x="718" y="-333.4" font-family="Times Roman,serif" font-size="14.00">Follower</text>
<polyline fill="none" stroke="black" points="635.5,-324 800.5,-324 "/>
<text text-anchor="start" x="643.5" y="-307.4" font-family="Times Roman,serif" font-size="14.00">id :integer</text>
<text text-anchor="start" x="643.5" y="-289.4" font-family="Times Roman,serif" font-size="14.00">name :string</text>
<text text-anchor="start" x="643.5" y="-271.4" font-family="Times Roman,serif" font-size="14.00">family_id :integer</text>
<text text-anchor="start" x="643.5" y="-253.4" font-family="Times Roman,serif" font-size="14.00">description :string</text>
<text text-anchor="start" x="643.5" y="-235.4" font-family="Times Roman,serif" font-size="14.00">created_at :datetime</text>
<text text-anchor="start" x="643.5" y="-217.4" font-family="Times Roman,serif" font-size="14.00">updated_at :datetime</text>
</g>
<!-- Fee -->
<g id="node9" class="node"><title>Fee</title>
<polyline fill="none" stroke="black" points="830,-181 994,-181 "/>
<path fill="none" stroke="black" d="M994,-181C1000,-181 1006,-187 1006,-193"/>
<polyline fill="none" stroke="black" points="1006,-193 1006,-365 "/>
<path fill="none" stroke="black" d="M1006,-365C1006,-371 1000,-377 994,-377"/>
<polyline fill="none" stroke="black" points="994,-377 830,-377 "/>
<path fill="none" stroke="black" d="M830,-377C824,-377 818,-371 818,-365"/>
<polyline fill="none" stroke="black" points="818,-365 818,-193 "/>
<path fill="none" stroke="black" d="M818,-193C818,-187 824,-181 830,-181"/>
<text text-anchor="middle" x="912" y="-360.4" font-family="Times Roman,serif" font-size="14.00">Fee</text>
<polyline fill="none" stroke="black" points="818,-351 1006,-351 "/>
<text text-anchor="start" x="826" y="-334.4" font-family="Times Roman,serif" font-size="14.00">id :integer</text>
<text text-anchor="start" x="826" y="-316.4" font-family="Times Roman,serif" font-size="14.00">value :integer</text>
<text text-anchor="start" x="826" y="-298.4" font-family="Times Roman,serif" font-size="14.00">outros :string</text>
<text text-anchor="start" x="826" y="-280.4" font-family="Times Roman,serif" font-size="14.00">name :string</text>
<text text-anchor="start" x="826" y="-262.4" font-family="Times Roman,serif" font-size="14.00">email :string</text>
<text text-anchor="start" x="826" y="-244.4" font-family="Times Roman,serif" font-size="14.00">message :string</text>
<text text-anchor="start" x="826" y="-226.4" font-family="Times Roman,serif" font-size="14.00">created_at :datetime</text>
<text text-anchor="start" x="826" y="-208.4" font-family="Times Roman,serif" font-size="14.00">updated_at :datetime</text>
<text text-anchor="start" x="826" y="-190.4" font-family="Times Roman,serif" font-size="14.00">confirm_deposit :boolean</text>
</g>
<!-- Family -->
<g id="node10" class="node"><title>Family</title>
<polyline fill="none" stroke="black" points="1035.5,-226 1176.5,-226 "/>
<path fill="none" stroke="black" d="M1176.5,-226C1182.5,-226 1188.5,-232 1188.5,-238"/>
<polyline fill="none" stroke="black" points="1188.5,-238 1188.5,-320 "/>
<path fill="none" stroke="black" d="M1188.5,-320C1188.5,-326 1182.5,-332 1176.5,-332"/>
<polyline fill="none" stroke="black" points="1176.5,-332 1035.5,-332 "/>
<path fill="none" stroke="black" d="M1035.5,-332C1029.5,-332 1023.5,-326 1023.5,-320"/>
<polyline fill="none" stroke="black" points="1023.5,-320 1023.5,-238 "/>
<path fill="none" stroke="black" d="M1023.5,-238C1023.5,-232 1029.5,-226 1035.5,-226"/>
<text text-anchor="middle" x="1106" y="-315.4" font-family="Times Roman,serif" font-size="14.00">Family</text>
<polyline fill="none" stroke="black" points="1023.5,-306 1188.5,-306 "/>
<text text-anchor="start" x="1031.5" y="-289.4" font-family="Times Roman,serif" font-size="14.00">id :integer</text>
<text text-anchor="start" x="1031.5" y="-271.4" font-family="Times Roman,serif" font-size="14.00">name :string</text>
<text text-anchor="start" x="1031.5" y="-253.4" font-family="Times Roman,serif" font-size="14.00">created_at :datetime</text>
<text text-anchor="start" x="1031.5" y="-235.4" font-family="Times Roman,serif" font-size="14.00">updated_at :datetime</text>
</g>
<!-- Family&#45;&gt;Member -->
<g id="edge18" class="edge"><title>Family&#45;&gt;Member</title>
<path fill="none" stroke="#4f9179" d="M1055.6,-219.732C1042.92,-206.089 1028.93,-192.058 1015,-180 994.305,-162.084 970.567,-144.515 947.888,-128.924"/>
<ellipse fill="none" stroke="#4f9179" cx="1058.63" cy="-223.02" rx="4.00002" ry="4.00002"/>
<polygon fill="#4f9179" stroke="#4f9179" points="947.853,-128.901 942.12,-119.553 943.72,-126.087 939.588,-123.273 939.588,-123.273 939.588,-123.273 943.72,-126.087 937.055,-126.992 947.853,-128.901 947.853,-128.901"/>
</g>
<!-- AdminSession -->
<g id="node11" class="node"><title>AdminSession</title>
<polyline fill="none" stroke="black" points="1217.5,-217 1368.5,-217 "/>
<path fill="none" stroke="black" d="M1368.5,-217C1374.5,-217 1380.5,-223 1380.5,-229"/>
<polyline fill="none" stroke="black" points="1380.5,-229 1380.5,-329 "/>
<path fill="none" stroke="black" d="M1380.5,-329C1380.5,-335 1374.5,-341 1368.5,-341"/>
<polyline fill="none" stroke="black" points="1368.5,-341 1217.5,-341 "/>
<path fill="none" stroke="black" d="M1217.5,-341C1211.5,-341 1205.5,-335 1205.5,-329"/>
<polyline fill="none" stroke="black" points="1205.5,-329 1205.5,-229 "/>
<path fill="none" stroke="black" d="M1205.5,-229C1205.5,-223 1211.5,-217 1217.5,-217"/>
<text text-anchor="middle" x="1293" y="-324.4" font-family="Times Roman,serif" font-size="14.00">AdminSession</text>
<polyline fill="none" stroke="black" points="1205.5,-315 1380.5,-315 "/>
<text text-anchor="start" x="1213.5" y="-298.4" font-family="Times Roman,serif" font-size="14.00">id :integer</text>
<text text-anchor="start" x="1213.5" y="-280.4" font-family="Times Roman,serif" font-size="14.00">id_session_hash :string</text>
<text text-anchor="start" x="1213.5" y="-262.4" font-family="Times Roman,serif" font-size="14.00">id_admin :integer</text>
<text text-anchor="start" x="1213.5" y="-244.4" font-family="Times Roman,serif" font-size="14.00">created_at :datetime</text>
<text text-anchor="start" x="1213.5" y="-226.4" font-family="Times Roman,serif" font-size="14.00">updated_at :datetime</text>
</g>
<!-- ActiveRecord::Base -->
<g id="node12" class="node"><title>ActiveRecord::Base</title>
<ellipse fill="none" stroke="black" cx="608" cy="-461" rx="104.151" ry="18.3848"/>
<text text-anchor="middle" x="608" y="-457.4" font-family="Times Roman,serif" font-size="14.00">ActiveRecord::Base</text>
</g>
<!-- ActiveRecord::Base&#45;&gt;Homemessage -->
<g id="edge2" class="edge"><title>ActiveRecord::Base&#45;&gt;Homemessage</title>
<path fill="none" stroke="black" d="M573.257,-443.554C551.344,-433.313 522.149,-421.037 495,-414 357.741,-378.422 305.248,-440.559 178,-378 163.82,-371.029 150.57,-361.071 138.714,-350.132"/>
</g>
<!-- ActiveRecord::Base&#45;&gt;Personal -->
<g id="edge4" class="edge"><title>ActiveRecord::Base&#45;&gt;Personal</title>
<path fill="none" stroke="black" d="M572.975,-443.563C551.078,-433.391 522,-421.186 495,-414 433.524,-397.638 253.06,-425.728 211,-378 152.223,-311.302 186.071,-202.439 217.135,-134.138"/>
</g>
<!-- ActiveRecord::Base&#45;&gt;Admin -->
<g id="edge8" class="edge"><title>ActiveRecord::Base&#45;&gt;Admin</title>
<path fill="none" stroke="black" d="M567.227,-443.974C545.75,-435.022 518.963,-423.885 495,-414 455.936,-397.886 442.127,-401.489 407,-378 398.556,-372.354 390.245,-365.896 382.251,-359.044"/>
</g>
<!-- ActiveRecord::Base&#45;&gt;Contato -->
<g id="edge10" class="edge"><title>ActiveRecord::Base&#45;&gt;Contato</title>
<path fill="none" stroke="black" d="M596.847,-442.547C583.739,-420.858 561.2,-383.567 540.952,-350.066"/>
</g>
<!-- ActiveRecord::Base&#45;&gt;Member -->
<g id="edge12" class="edge"><title>ActiveRecord::Base&#45;&gt;Member</title>
<path fill="none" stroke="black" d="M603.306,-442.194C592.384,-393.798 570.293,-262.951 627,-180 660.672,-130.746 722.962,-103.39 774.234,-88.5425"/>
</g>
<!-- ActiveRecord::Base&#45;&gt;Follower -->
<g id="edge14" class="edge"><title>ActiveRecord::Base&#45;&gt;Follower</title>
<path fill="none" stroke="black" d="M619.153,-442.547C632.261,-420.858 654.8,-383.567 675.048,-350.066"/>
</g>
<!-- ActiveRecord::Base&#45;&gt;Fee -->
<g id="edge16" class="edge"><title>ActiveRecord::Base&#45;&gt;Fee</title>
<path fill="none" stroke="black" d="M648.773,-443.974C670.25,-435.022 697.037,-423.885 721,-414 760.064,-397.886 773.583,-401.05 809,-378 811.91,-376.106 814.81,-374.123 817.692,-372.066"/>
</g>
<!-- ActiveRecord::Base&#45;&gt;Family -->
<g id="edge20" class="edge"><title>ActiveRecord::Base&#45;&gt;Family</title>
<path fill="none" stroke="black" d="M643.015,-443.522C664.907,-433.335 693.985,-421.129 721,-414 848.285,-380.411 897.911,-438.165 1015,-378 1035.97,-367.224 1054.56,-349.541 1069.38,-332.078"/>
</g>
<!-- ActiveRecord::Base&#45;&gt;AdminSession -->
<g id="edge22" class="edge"><title>ActiveRecord::Base&#45;&gt;AdminSession</title>
<path fill="none" stroke="black" d="M642.157,-443.43C664.09,-433.004 693.517,-420.575 721,-414 824.169,-389.318 1100.94,-423.004 1197,-378 1215.32,-369.417 1232,-355.714 1246.14,-341.206"/>
</g>
</g>
</svg>
